<?xml version="1.0" encoding="UTF-8" standalone="no"?>
<!DOCTYPE svg PUBLIC "-//W3C//DTD SVG 1.1//EN" "http://www.w3.org/Graphics/SVG/1.1/DTD/svg11.dtd">
<svg xmlns="http://www.w3.org/2000/svg" version="1.1" viewBox="0.00 0.00 768.00 1344.00">
<path stroke="#19382f" stroke-width="2.00" fill="none" stroke-linecap="butt" vector-effect="non-scaling-stroke" d="
  M 240.86 1344.00
  Q 259.97 1338.17 278.97 1332.05
  Q 286.66 1329.57 291.38 1326.79
  Q 299.06 1322.28 303.12 1320.81
  C 313.37 1317.08 324.14 1317.63 329.85 1304.19
  Q 331.41 1300.50 340.36 1278.20
  Q 341.93 1274.31 344.03 1270.81
  C 348.21 1263.88 354.09 1263.96 360.78 1261.20
  C 371.37 1256.83 369.73 1244.58 366.12 1236.02
  A 5.28 5.22 41.8 0 1 365.91 1232.56
  Q 367.28 1227.63 369.24 1222.99
  Q 369.72 1221.85 370.55 1221.03
  A 1.64 1.63 -44.9 0 1 372.86 1221.03
  L 375.28 1223.45
  A 1.87 1.87 0.0 0 0 377.78 1223.58
  Q 380.40 1221.45 381.00 1221.01
  C 386.74 1216.76 392.90 1219.66 398.26 1222.84
  Q 409.89 1229.74 417.45 1237.30
  C 427.12 1246.99 428.06 1262.32 424.41 1274.57
  C 420.48 1287.80 407.81 1298.20 414.85 1312.53
  C 420.43 1323.91 436.18 1328.98 447.77 1330.17
  Q 470.82 1332.56 491.11 1331.98
  C 499.08 1331.75 511.09 1330.14 514.63 1322.38
  Q 516.48 1318.34 516.74 1314.02
  C 517.45 1302.57 517.22 1292.16 522.64 1284.10
  Q 523.58 1282.69 527.30 1277.95
  C 530.18 1274.28 528.25 1270.37 525.46 1267.89
  Q 517.68 1260.96 514.92 1258.27
  C 506.98 1250.54 500.96 1240.17 499.43 1229.22
  Q 498.90 1225.43 498.46 1222.48
  C 497.58 1216.47 490.45 1219.49 485.90 1220.87
  A 0.62 0.61 64.2 0 1 485.20 1220.62
  Q 481.60 1215.14 478.67 1213.35
  C 473.63 1210.25 468.20 1208.07 464.74 1203.24
  C 462.19 1199.67 460.76 1197.37 458.19 1195.32
  C 456.05 1193.61 454.03 1192.00 452.37 1189.84
  Q 450.34 1187.20 447.09 1182.96
  C 444.09 1179.03 441.20 1176.46 437.81 1173.14
  Q 435.78 1171.15 431.95 1165.88
  A 0.61 0.61 0.0 0 1 432.02 1165.08
  L 432.29 1164.81
  A 0.72 0.71 -39.0 0 1 433.40 1164.92
  Q 436.15 1169.18 440.62 1172.50
  A 1.26 1.22 -30.4 0 0 441.52 1172.72
  C 446.32 1171.99 449.85 1170.80 451.61 1165.88
  Q 453.94 1159.39 454.14 1151.09
  Q 454.53 1134.98 454.10 1129.60
  Q 453.63 1123.67 451.00 1119.36
  C 445.90 1111.03 442.37 1105.66 441.96 1096.91
  C 441.52 1087.33 441.46 1082.73 440.02 1076.54
  Q 439.17 1072.89 434.65 1055.04
  C 432.00 1044.57 423.06 1035.70 411.80 1038.74
  Q 408.74 1039.57 403.50 1043.22
  C 392.01 1051.20 379.78 1058.45 365.60 1053.04
  C 361.15 1051.34 354.22 1047.65 348.59 1046.45
  Q 335.91 1043.76 323.23 1045.54
  C 316.30 1046.52 313.40 1049.11 309.02 1053.50
  A 6.31 6.24 7.4 0 1 307.68 1054.52
  C 303.60 1056.82 297.88 1056.44 293.44 1058.60
  C 288.36 1061.08 285.05 1065.58 282.10 1070.44
  C 281.05 1072.16 279.55 1073.00 277.85 1071.61
  C 272.71 1067.39 268.79 1063.80 262.88 1060.50
  Q 250.36 1053.52 242.63 1049.63
  Q 237.11 1046.86 231.18 1047.47
  C 226.19 1047.99 220.45 1051.60 220.77 1057.26
  C 220.95 1060.33 223.88 1063.56 226.36 1064.99
  Q 232.13 1068.34 236.07 1070.39
  C 246.71 1075.92 244.09 1087.59 231.45 1084.91
  C 222.51 1083.01 212.54 1079.02 207.58 1071.20
  Q 206.77 1069.91 200.51 1059.58
  C 195.57 1051.42 190.08 1048.45 181.73 1043.18
  C 174.19 1038.41 172.16 1030.35 167.35 1023.46
  C 162.10 1015.94 154.40 1007.88 146.00 1003.72
  Q 138.34 999.92 132.27 996.21
  Q 124.79 991.65 125.13 982.73
  Q 125.35 976.91 127.11 964.17
  C 127.71 959.80 126.68 955.00 123.78 951.17
  C 121.38 948.00 118.99 945.23 119.71 940.93
  Q 121.43 930.69 122.10 926.27
  Q 123.96 914.14 122.25 898.61
  Q 121.94 895.80 119.44 882.75
  C 118.08 875.63 118.65 869.35 115.04 863.20
  C 112.37 858.67 108.09 853.64 105.53 848.65
  C 99.27 836.46 90.33 821.93 76.27 815.09
  C 68.31 811.22 61.78 808.64 54.15 812.33
  C 44.20 817.15 36.12 821.00 26.15 819.78
  C 17.34 818.70 9.24 817.34 0.00 817.75"
/>
<path fill="#1b3a31" d="
  M 768.00 0.00
  L 768.00 1344.00
  L 240.86 1344.00
  Q 259.97 1338.17 278.97 1332.05
  Q 286.66 1329.57 291.38 1326.79
  Q 299.06 1322.28 303.12 1320.81
  C 313.37 1317.08 324.14 1317.63 329.85 1304.19
  Q 331.41 1300.50 340.36 1278.20
  Q 341.93 1274.31 344.03 1270.81
  C 348.21 1263.88 354.09 1263.96 360.78 1261.20
  C 371.37 1256.83 369.73 1244.58 366.12 1236.02
  A 5.28 5.22 41.8 0 1 365.91 1232.56
  Q 367.28 1227.63 369.24 1222.99
  Q 369.72 1221.85 370.55 1221.03
  A 1.64 1.63 -44.9 0 1 372.86 1221.03
  L 375.28 1223.45
  A 1.87 1.87 0.0 0 0 377.78 1223.58
  Q 380.40 1221.45 381.00 1221.01
  C 386.74 1216.76 392.90 1219.66 398.26 1222.84
  Q 409.89 1229.74 417.45 1237.30
  C 427.12 1246.99 428.06 1262.32 424.41 1274.57
  C 420.48 1287.80 407.81 1298.20 414.85 1312.53
  C 420.43 1323.91 436.18 1328.98 447.77 1330.17
  Q 470.82 1332.56 491.11 1331.98
  C 499.08 1331.75 511.09 1330.14 514.63 1322.38
  Q 516.48 1318.34 516.74 1314.02
  C 517.45 1302.57 517.22 1292.16 522.64 1284.10
  Q 523.58 1282.69 527.30 1277.95
  C 530.18 1274.28 528.25 1270.37 525.46 1267.89
  Q 517.68 1260.96 514.92 1258.27
  C 506.98 1250.54 500.96 1240.17 499.43 1229.22
  Q 498.90 1225.43 498.46 1222.48
  C 497.58 1216.47 490.45 1219.49 485.90 1220.87
  A 0.62 0.61 64.2 0 1 485.20 1220.62
  Q 481.60 1215.14 478.67 1213.35
  C 473.63 1210.25 468.20 1208.07 464.74 1203.24
  C 462.19 1199.67 460.76 1197.37 458.19 1195.32
  C 456.05 1193.61 454.03 1192.00 452.37 1189.84
  Q 450.34 1187.20 447.09 1182.96
  C 444.09 1179.03 441.20 1176.46 437.81 1173.14
  Q 435.78 1171.15 431.95 1165.88
  A 0.61 0.61 0.0 0 1 432.02 1165.08
  L 432.29 1164.81
  A 0.72 0.71 -39.0 0 1 433.40 1164.92
  Q 436.15 1169.18 440.62 1172.50
  A 1.26 1.22 -30.4 0 0 441.52 1172.72
  C 446.32 1171.99 449.85 1170.80 451.61 1165.88
  Q 453.94 1159.39 454.14 1151.09
  Q 454.53 1134.98 454.10 1129.60
  Q 453.63 1123.67 451.00 1119.36
  C 445.90 1111.03 442.37 1105.66 441.96 1096.91
  C 441.52 1087.33 441.46 1082.73 440.02 1076.54
  Q 439.17 1072.89 434.65 1055.04
  C 432.00 1044.57 423.06 1035.70 411.80 1038.74
  Q 408.74 1039.57 403.50 1043.22
  C 392.01 1051.20 379.78 1058.45 365.60 1053.04
  C 361.15 1051.34 354.22 1047.65 348.59 1046.45
  Q 335.91 1043.76 323.23 1045.54
  C 316.30 1046.52 313.40 1049.11 309.02 1053.50
  A 6.31 6.24 7.4 0 1 307.68 1054.52
  C 303.60 1056.82 297.88 1056.44 293.44 1058.60
  C 288.36 1061.08 285.05 1065.58 282.10 1070.44
  C 281.05 1072.16 279.55 1073.00 277.85 1071.61
  C 272.71 1067.39 268.79 1063.80 262.88 1060.50
  Q 250.36 1053.52 242.63 1049.63
  Q 237.11 1046.86 231.18 1047.47
  C 226.19 1047.99 220.45 1051.60 220.77 1057.26
  C 220.95 1060.33 223.88 1063.56 226.36 1064.99
  Q 232.13 1068.34 236.07 1070.39
  C 246.71 1075.92 244.09 1087.59 231.45 1084.91
  C 222.51 1083.01 212.54 1079.02 207.58 1071.20
  Q 206.77 1069.91 200.51 1059.58
  C 195.57 1051.42 190.08 1048.45 181.73 1043.18
  C 174.19 1038.41 172.16 1030.35 167.35 1023.46
  C 162.10 1015.94 154.40 1007.88 146.00 1003.72
  Q 138.34 999.92 132.27 996.21
  Q 124.79 991.65 125.13 982.73
  Q 125.35 976.91 127.11 964.17
  C 127.71 959.80 126.68 955.00 123.78 951.17
  C 121.38 948.00 118.99 945.23 119.71 940.93
  Q 121.43 930.69 122.10 926.27
  Q 123.96 914.14 122.25 898.61
  Q 121.94 895.80 119.44 882.75
  C 118.08 875.63 118.65 869.35 115.04 863.20
  C 112.37 858.67 108.09 853.64 105.53 848.65
  C 99.27 836.46 90.33 821.93 76.27 815.09
  C 68.31 811.22 61.78 808.64 54.15 812.33
  C 44.20 817.15 36.12 821.00 26.15 819.78
  C 17.34 818.70 9.24 817.34 0.00 817.75
  L 0.00 0.00
  L 768.00 0.00
  Z"
/>
<path fill="#17362d" d="
  M 240.86 1344.00
  L 0.00 1344.00
  L 0.00 817.75
  C 9.24 817.34 17.34 818.70 26.15 819.78
  C 36.12 821.00 44.20 817.15 54.15 812.33
  C 61.78 808.64 68.31 811.22 76.27 815.09
  C 90.33 821.93 99.27 836.46 105.53 848.65
  C 108.09 853.64 112.37 858.67 115.04 863.20
  C 118.65 869.35 118.08 875.63 119.44 882.75
  Q 121.94 895.80 122.25 898.61
  Q 123.96 914.14 122.10 926.27
  Q 121.43 930.69 119.71 940.93
  C 118.99 945.23 121.38 948.00 123.78 951.17
  C 126.68 955.00 127.71 959.80 127.11 964.17
  Q 125.35 976.91 125.13 982.73
  Q 124.79 991.65 132.27 996.21
  Q 138.34 999.92 146.00 1003.72
  C 154.40 1007.88 162.10 1015.94 167.35 1023.46
  C 172.16 1030.35 174.19 1038.41 181.73 1043.18
  C 190.08 1048.45 195.57 1051.42 200.51 1059.58
  Q 206.77 1069.91 207.58 1071.20
  C 212.54 1079.02 222.51 1083.01 231.45 1084.91
  C 244.09 1087.59 246.71 1075.92 236.07 1070.39
  Q 232.13 1068.34 226.36 1064.99
  C 223.88 1063.56 220.95 1060.33 220.77 1057.26
  C 220.45 1051.60 226.19 1047.99 231.18 1047.47
  Q 237.11 1046.86 242.63 1049.63
  Q 250.36 1053.52 262.88 1060.50
  C 268.79 1063.80 272.71 1067.39 277.85 1071.61
  C 279.55 1073.00 281.05 1072.16 282.10 1070.44
  C 285.05 1065.58 288.36 1061.08 293.44 1058.60
  C 297.88 1056.44 303.60 1056.82 307.68 1054.52
  A 6.31 6.24 7.4 0 0 309.02 1053.50
  C 313.40 1049.11 316.30 1046.52 323.23 1045.54
  Q 335.91 1043.76 348.59 1046.45
  C 354.22 1047.65 361.15 1051.34 365.60 1053.04
  C 379.78 1058.45 392.01 1051.20 403.50 1043.22
  Q 408.74 1039.57 411.80 1038.74
  C 423.06 1035.70 432.00 1044.57 434.65 1055.04
  Q 439.17 1072.89 440.02 1076.54
  C 441.46 1082.73 441.52 1087.33 441.96 1096.91
  C 442.37 1105.66 445.90 1111.03 451.00 1119.36
  Q 453.63 1123.67 454.10 1129.60
  Q 454.53 1134.98 454.14 1151.09
  Q 453.94 1159.39 451.61 1165.88
  C 449.85 1170.80 446.32 1171.99 441.52 1172.72
  A 1.26 1.22 -30.4 0 1 440.62 1172.50
  Q 436.15 1169.18 433.40 1164.92
  A 0.72 0.71 -39.0 0 0 432.29 1164.81
  L 432.02 1165.08
  A 0.61 0.61 0.0 0 0 431.95 1165.88
  Q 435.78 1171.15 437.81 1173.14
  C 441.20 1176.46 444.09 1179.03 447.09 1182.96
  Q 450.34 1187.20 452.37 1189.84
  C 454.03 1192.00 456.05 1193.61 458.19 1195.32
  C 460.76 1197.37 462.19 1199.67 464.74 1203.24
  C 468.20 1208.07 473.63 1210.25 478.67 1213.35
  Q 481.60 1215.14 485.20 1220.62
  A 0.62 0.61 64.2 0 0 485.90 1220.87
  C 490.45 1219.49 497.58 1216.47 498.46 1222.48
  Q 498.90 1225.43 499.43 1229.22
  C 500.96 1240.17 506.98 1250.54 514.92 1258.27
  Q 517.68 1260.96 525.46 1267.89
  C 528.25 1270.37 530.18 1274.28 527.30 1277.95
  Q 523.58 1282.69 522.64 1284.10
  C 517.22 1292.16 517.45 1302.57 516.74 1314.02
  Q 516.48 1318.34 514.63 1322.38
  C 511.09 1330.14 499.08 1331.75 491.11 1331.98
  Q 470.82 1332.56 447.77 1330.17
  C 436.18 1328.98 420.43 1323.91 414.85 1312.53
  C 407.81 1298.20 420.48 1287.80 424.41 1274.57
  C 428.06 1262.32 427.12 1246.99 417.45 1237.30
  Q 409.89 1229.74 398.26 1222.84
  C 392.90 1219.66 386.74 1216.76 381.00 1221.01
  Q 380.40 1221.45 377.78 1223.58
  A 1.87 1.87 0.0 0 1 375.28 1223.45
  L 372.86 1221.03
  A 1.64 1.63 -44.9 0 0 370.55 1221.03
  Q 369.72 1221.85 369.24 1222.99
  Q 367.28 1227.63 365.91 1232.56
  A 5.28 5.22 41.8 0 0 366.12 1236.02
  C 369.73 1244.58 371.37 1256.83 360.78 1261.20
  C 354.09 1263.96 348.21 1263.88 344.03 1270.81
  Q 341.93 1274.31 340.36 1278.20
  Q 331.41 1300.50 329.85 1304.19
  C 324.14 1317.63 313.37 1317.08 303.12 1320.81
  Q 299.06 1322.28 291.38 1326.79
  Q 286.66 1329.57 278.97 1332.05
  Q 259.97 1338.17 240.86 1344.00
  Z"
/>
</svg>
