<?xml version="1.0" encoding="UTF-8" standalone="no"?>
<!DOCTYPE svg PUBLIC "-//W3C//DTD SVG 1.1//EN" "http://www.w3.org/Graphics/SVG/1.1/DTD/svg11.dtd">
<svg xmlns="http://www.w3.org/2000/svg" version="1.1" viewBox="0.00 0.00 1024.00 1024.00">
<g stroke-width="2.00" fill="none" stroke-linecap="butt">
<path stroke="#64352b" vector-effect="non-scaling-stroke" d="
  M 658.86 219.45
  A 1.20 1.19 -67.3 0 0 657.41 220.05
  Q 655.82 223.19 655.79 226.04
  A 1.24 1.24 0.0 0 0 656.21 226.97
  Q 658.94 229.35 659.90 229.67
  Q 667.16 232.15 672.15 236.10
  Q 679.82 242.18 685.96 248.30
  C 688.76 251.09 690.87 255.68 688.43 259.20
  Q 687.31 260.82 684.90 263.33
  A 0.89 0.88 31.3 0 0 685.26 264.78
  C 688.33 265.82 693.88 267.21 696.89 265.86
  A 1.93 1.87 4.0 0 0 697.65 265.22
  C 705.36 254.24 689.93 237.95 681.95 231.78
  Q 671.49 223.68 658.86 219.45"
/>
<path stroke="#216f66" vector-effect="non-scaling-stroke" d="
  M 327.78 255.57
  A 0.58 0.58 0.0 0 0 328.66 255.75
  C 334.53 250.97 338.11 247.87 343.81 242.07
  Q 351.31 234.45 358.20 229.21
  Q 358.79 228.75 359.96 227.20
  A 0.84 0.84 0.0 0 0 359.80 226.02
  C 352.18 220.13 341.93 222.29 334.63 227.66
  C 326.23 233.84 322.82 246.14 327.78 255.57"
/>
<path stroke="#7d8751" vector-effect="non-scaling-stroke" d="
  M 609.29 259.02
  Q 588.27 248.01 569.49 242.99
  Q 499.45 224.25 432.56 254.57
  Q 420.23 260.16 406.74 269.75"
/>
<path stroke="#216f66" vector-effect="non-scaling-stroke" d="
  M 406.74 269.75
  Q 406.62 269.73 406.46 269.69
  A 0.94 0.91 76.1 0 1 405.96 269.38
  Q 393.89 254.74 381.60 239.65
  Q 378.57 235.92 375.35 233.28
  A 2.94 2.93 56.0 0 0 372.63 232.74
  Q 368.65 233.96 365.77 235.76
  C 361.13 238.67 357.15 243.18 352.19 247.54
  Q 338.09 259.97 334.91 263.40
  Q 332.60 265.89 329.73 268.96
  C 322.30 276.91 320.44 289.59 326.43 298.85
  Q 330.56 305.26 337.98 313.53
  Q 344.38 320.66 350.19 327.83"
/>
<path stroke="#7d8751" vector-effect="non-scaling-stroke" d="
  M 350.19 327.83
  Q 339.33 342.96 332.92 356.93
  Q 315.59 394.67 315.79 437.24
  Q 316.08 495.49 347.86 544.16"
/>
<path stroke="#784937" vector-effect="non-scaling-stroke" d="
  M 347.86 544.16
  L 333.64 554.38
  A 0.26 0.26 0.0 0 0 333.84 554.85
  C 340.91 553.62 350.63 555.38 356.87 557.94
  C 367.04 562.12 377.84 568.34 385.16 576.36
  C 397.23 589.57 405.92 603.68 406.83 621.77
  A 0.45 0.45 0.0 0 0 407.70 621.91
  Q 410.44 615.02 414.60 608.98"
/>
<path stroke="#7d8751" vector-effect="non-scaling-stroke" d="
  M 414.60 608.98
  Q 452.99 630.91 493.74 635.10
  C 545.51 640.43 597.00 625.70 638.54 593.31"
/>
<path stroke="#216f66" vector-effect="non-scaling-stroke" d="
  M 638.54 593.31
  Q 640.01 594.37 641.52 595.59
  Q 643.14 596.90 644.58 597.78
  Q 648.34 600.11 657.23 605.97
  Q 657.44 606.11 657.71 605.96
  A 0.32 0.32 0.0 0 0 657.85 605.56
  L 648.72 584.62
  A 0.93 0.90 -50.2 0 1 648.68 584.06
  Q 648.73 583.90 648.80 583.73"
/>
<path stroke="#7d8751" vector-effect="non-scaling-stroke" d="
  M 648.80 583.73
  C 692.70 544.84 716.61 489.20 714.94 430.50
  Q 713.54 381.54 690.61 340.13
  Q 683.06 326.51 675.58 316.14"
/>
<path stroke="#64352b" vector-effect="non-scaling-stroke" d="
  M 675.58 316.14
  Q 677.95 314.45 680.62 312.40
  Q 691.97 303.67 701.38 297.75
  C 702.81 296.84 704.38 296.27 705.56 295.51
  A 0.34 0.33 -61.5 0 0 705.38 294.89
  Q 696.06 294.96 685.25 291.98
  C 668.27 287.29 653.34 275.72 642.78 261.73
  Q 631.37 246.62 628.11 227.84
  A 0.22 0.22 0.0 0 0 627.70 227.78
  Q 619.62 243.90 609.97 258.76
  Q 609.82 258.99 609.29 259.02"
/>
<path stroke="#cb864d" vector-effect="non-scaling-stroke" d="
  M 675.58 316.14
  Q 637.72 347.17 627.89 355.89
  Q 613.81 368.37 575.84 405.84
  Q 566.64 414.92 556.84 425.89
  A 1.23 1.23 0.0 0 1 554.96 425.83
  Q 536.99 402.94 513.53 386.47
  A 0.52 0.52 0.0 0 1 513.49 385.64
  Q 514.73 384.58 515.23 383.98
  Q 547.74 345.63 579.25 302.75
  Q 596.62 279.12 609.15 259.77
  Q 609.20 259.70 609.22 259.68
  Q 609.39 259.52 609.29 259.02"
/>
<path stroke="#89c188" vector-effect="non-scaling-stroke" d="
  M 648.80 583.73
  Q 648.63 583.70 648.44 583.67
  A 0.71 0.70 -6.7 0 1 647.94 583.28
  Q 645.87 578.69 643.47 573.39
  Q 634.46 553.47 625.42 531.30
  C 624.52 529.09 623.03 526.12 621.81 524.70
  Q 602.55 502.44 583.51 480.05"
/>
<path stroke="#7dad75" vector-effect="non-scaling-stroke" d="
  M 583.51 480.05
  L 556.03 447.11
  A 0.35 0.35 0.0 0 0 555.51 447.09
  Q 548.84 453.95 542.95 460.72
  Q 534.83 470.05 532.34 472.59
  Q 526.81 478.23 522.25 485.02
  A 1.03 1.02 -48.0 0 0 522.31 486.25
  L 545.29 513.84"
/>
<path stroke="#89c188" vector-effect="non-scaling-stroke" d="
  M 545.29 513.84
  Q 554.79 525.23 564.55 536.59
  C 573.10 546.53 578.04 552.67 587.32 558.32
  Q 591.37 560.78 602.03 568.01
  Q 616.22 577.63 630.52 586.97
  Q 632.88 588.52 638.54 593.31"
/>
<path stroke="#df9a59" vector-effect="non-scaling-stroke" d="
  M 414.60 608.98
  Q 419.77 599.21 423.90 593.15
  Q 443.17 564.84 469.84 528.79"
/>
<path stroke="#d69053" vector-effect="non-scaling-stroke" d="
  M 469.84 528.79
  Q 496.25 494.30 525.06 462.06
  A 0.94 0.94 0.0 0 0 525.11 460.86
  Q 507.23 437.57 481.78 422.35
  A 1.29 1.29 0.0 0 0 480.11 422.64
  Q 475.46 428.29 469.63 434.39
  Q 443.24 461.98 415.93 488.69"
/>
<path stroke="#df9a59" vector-effect="non-scaling-stroke" d="
  M 415.93 488.69
  Q 391.30 511.36 377.48 521.98
  Q 367.18 529.91 357.05 538.05
  Q 352.66 541.58 347.86 544.16"
/>
<path stroke="#7d8751" vector-effect="non-scaling-stroke" d="
  M 357.23 319.53
  L 366.92 309.21"
/>
<path stroke="#21958a" vector-effect="non-scaling-stroke" d="
  M 583.51 480.05
  Q 572.55 486.68 561.55 493.23
  C 552.97 498.35 547.48 503.83 545.29 513.84"
/>
<path stroke="#d15239" vector-effect="non-scaling-stroke" d="
  M 469.84 528.79
  Q 461.43 520.01 452.70 511.92
  Q 439.57 499.74 423.36 492.16
  Q 419.69 490.44 415.93 488.69"
/>
<path stroke="#89c188" vector-effect="non-scaling-stroke" d="
  M 406.74 269.75
  Q 406.52 270.26 406.72 270.50
  Q 438.71 309.38 470.61 343.64
  Q 472.08 345.22 472.94 346.88
  A 1.16 1.14 -38.6 0 1 472.79 348.15
  Q 469.87 351.61 464.96 355.95
  Q 454.54 365.14 440.35 377.60
  Q 436.64 380.86 432.52 383.88
  A 1.67 1.67 0.0 0 1 430.30 383.66
  C 423.69 376.33 413.60 365.27 405.42 355.19
  Q 399.42 347.77 392.92 340.27
  C 385.72 331.95 375.86 319.48 366.92 309.21"
/>
<path stroke="#216f66" vector-effect="non-scaling-stroke" d="
  M 366.92 309.21
  L 342.07 279.74
  A 0.76 0.75 38.1 0 0 340.82 279.89
  L 337.08 287.35
  A 2.39 2.32 -30.0 0 0 336.84 288.19
  C 336.42 292.87 337.96 295.98 340.76 299.52
  Q 345.34 305.33 349.74 311.27
  C 351.86 314.15 354.29 316.69 356.62 319.38
  Q 356.87 319.67 357.23 319.53"
/>
<path stroke="#89c188" vector-effect="non-scaling-stroke" d="
  M 357.23 319.53
  Q 357.02 319.90 357.29 320.24
  Q 363.25 327.78 369.61 334.85
  C 375.82 341.74 380.64 348.56 386.42 354.99
  A 1.47 1.46 50.7 0 0 388.37 355.19
  L 390.69 353.49
  A 1.26 1.20 -62.3 0 1 391.37 353.26
  Q 393.17 353.19 394.65 355.64
  Q 398.52 362.04 404.55 371.21
  Q 407.16 375.17 404.62 379.27
  Q 403.51 381.05 401.48 381.42
  C 398.74 381.91 397.29 381.56 395.50 379.28
  C 387.13 368.60 377.63 358.38 369.61 349.73
  Q 366.93 346.85 360.06 338.65
  Q 355.36 333.04 350.19 327.83"
/>
<path stroke="#64352b" vector-effect="non-scaling-stroke" d="
  M 660.03 240.68
  C 660.14 246.76 667.81 257.24 673.16 259.71
  A 1.72 1.72 0.0 0 0 674.24 259.83
  Q 678.52 258.89 681.09 255.30
  A 1.95 1.94 -44.1 0 0 681.13 253.08
  C 677.12 247.12 669.50 242.00 663.20 239.09
  Q 661.45 238.28 660.33 239.78
  A 1.50 1.50 0.0 0 0 660.03 240.68"
/>
<path stroke="#64352b" vector-effect="non-scaling-stroke" d="
  M 653.46 245.53
  A 0.66 0.65 -40.2 0 0 652.33 245.44
  L 647.28 252.67
  A 2.65 2.64 46.1 0 0 647.23 255.61
  Q 657.13 270.96 673.37 279.63
  Q 676.79 281.45 679.61 279.57
  Q 683.23 277.14 686.11 274.15
  A 0.70 0.70 0.0 0 0 685.86 273.01
  C 678.88 270.33 672.78 267.82 667.32 263.17
  Q 658.17 255.36 653.46 245.53"
/>
<path stroke="#784937" vector-effect="non-scaling-stroke" d="
  M 350.69 574.23
  A 0.41 0.41 0.0 0 0 350.88 574.88
  C 360.01 577.93 368.02 583.14 374.16 590.60
  Q 379.39 596.95 382.16 602.71
  A 0.48 0.47 -40.5 0 0 382.98 602.77
  L 388.69 594.61
  A 1.90 1.88 -40.7 0 0 388.84 592.71
  Q 385.75 586.24 380.92 582.07
  C 375.76 577.62 369.48 572.09 362.74 567.85
  Q 360.63 566.52 359.22 567.29
  Q 354.09 570.09 350.69 574.23"
/>
<path stroke="#784937" vector-effect="non-scaling-stroke" d="
  M 352.08 583.04
  Q 348.86 581.88 346.60 581.59
  C 341.90 580.97 338.33 580.32 337.23 585.78
  C 335.78 592.94 338.64 598.01 342.94 604.30
  C 350.92 615.98 364.28 623.75 377.36 627.81
  A 1.01 1.01 0.0 0 0 378.67 626.95
  L 379.33 620.20
  A 1.55 1.53 14.7 0 0 378.41 618.64
  Q 369.65 614.83 366.79 613.21
  Q 358.67 608.59 349.80 598.96
  C 347.48 596.44 345.61 593.13 347.22 589.96
  Q 349.06 586.35 352.21 583.83
  A 0.46 0.46 0.0 0 0 352.08 583.04"
/>
<path stroke="#784937" vector-effect="non-scaling-stroke" d="
  M 374.66 607.32
  Q 374.84 603.75 373.14 600.33
  Q 369.88 593.72 363.80 588.59
  A 2.75 2.73 51.1 0 0 360.77 588.26
  Q 358.17 589.62 355.96 592.00
  A 2.99 2.98 53.2 0 0 355.48 595.36
  C 356.40 597.22 357.89 598.43 359.67 600.17
  Q 365.76 606.18 373.60 608.11
  A 0.86 0.86 0.0 0 0 374.66 607.32"
/>
<path stroke="#7f9691" vector-effect="non-scaling-stroke" d="
  M 591.48 724.20
  L 599.16 715.33
  A 0.88 0.88 0.0 0 0 599.17 714.19
  C 591.04 704.47 578.52 700.18 565.95 700.29
  C 543.65 700.49 526.06 713.13 521.73 735.49
  C 518.57 751.79 523.90 768.65 536.71 779.13
  C 554.18 793.41 583.57 791.76 598.70 774.52
  A 0.90 0.89 -44.8 0 0 598.71 773.34
  L 590.83 764.20
  A 0.67 0.67 0.0 0 0 589.84 764.17
  C 572.38 782.66 540.91 776.38 537.17 749.02
  C 535.37 735.85 540.78 722.63 552.74 716.70
  C 561.34 712.43 573.27 712.97 581.72 717.59
  C 584.85 719.31 588.15 722.42 590.39 724.29
  A 0.78 0.78 0.0 0 0 591.48 724.20"
/>
<path stroke="#7f9691" vector-effect="non-scaling-stroke" d="
  M 672.71 719.39
  L 676.69 708.39
  A 1.01 1.01 0.0 0 0 676.19 707.14
  Q 659.99 699.14 642.22 700.69
  C 629.10 701.83 616.61 709.59 614.84 723.56
  C 612.02 745.80 633.95 749.39 649.86 753.39
  Q 655.56 754.82 659.57 756.84
  C 666.04 760.09 666.70 768.20 660.56 772.06
  C 653.06 776.78 642.01 776.43 633.98 773.78
  Q 626.11 771.17 619.66 766.24
  A 0.49 0.48 -57.3 0 0 618.93 766.40
  L 613.25 777.32
  A 0.55 0.54 33.3 0 0 613.39 777.99
  C 627.13 789.23 650.65 792.52 666.45 784.52
  Q 681.17 777.07 679.87 760.78
  C 679.11 751.21 671.79 745.19 663.20 742.54
  Q 654.69 739.91 639.76 735.75
  C 633.54 734.02 629.01 730.18 630.63 723.06
  C 631.97 717.18 638.82 714.02 644.83 713.59
  C 654.88 712.88 662.98 715.46 671.72 719.79
  A 0.71 0.71 0.0 0 0 672.71 719.39"
/>
<path stroke="#7f9691" vector-effect="non-scaling-stroke" d="
  M 341.73 702.72
  L 341.73 787.22
  A 0.83 0.83 0.0 0 0 342.56 788.05
  L 356.82 788.05
  A 0.75 0.75 0.0 0 0 357.57 787.30
  L 357.57 762.30
  A 0.45 0.45 0.0 0 1 358.03 761.85
  Q 372.19 761.93 380.24 761.80
  C 392.74 761.59 404.99 755.94 410.09 744.06
  C 415.45 731.61 412.64 716.65 401.27 708.71
  C 393.59 703.35 385.91 701.92 376.11 702.05
  Q 367.22 702.18 342.41 702.04
  A 0.68 0.68 0.0 0 0 341.73 702.72"
/>
<path stroke="#7f9691" vector-effect="non-scaling-stroke" d="
  M 464.90 767.13
  Q 481.24 767.13 485.36 767.08
  A 0.81 0.79 76.9 0 1 486.10 767.55
  L 495.36 787.62
  A 0.43 0.42 -11.6 0 0 495.75 787.87
  L 510.55 787.87
  A 0.89 0.89 0.0 0 0 511.36 786.61
  L 472.84 703.12
  A 1.07 1.07 0.0 0 0 471.91 702.51
  Q 468.48 702.41 464.87 702.41
  Q 461.27 702.42 457.84 702.51
  A 1.07 1.07 0.0 0 0 456.91 703.13
  L 418.45 786.64
  A 0.89 0.89 0.0 0 0 419.26 787.90
  L 434.06 787.89
  A 0.43 0.42 11.5 0 0 434.45 787.64
  L 443.70 767.57
  A 0.81 0.79 -77.0 0 1 444.44 767.10
  Q 448.55 767.14 464.90 767.13"
/>
<path stroke="#7dad75" vector-effect="non-scaling-stroke" d="
  M 479.15 355.36
  C 469.67 363.44 459.25 373.17 448.96 381.85
  Q 443.50 386.46 438.97 391.37
  A 1.22 1.20 46.3 0 0 438.94 392.97
  Q 444.92 400.01 456.84 413.66
  Q 461.34 418.82 465.60 422.53
  A 1.19 1.19 0.0 0 0 467.28 422.41
  L 501.87 382.44
  A 1.30 1.30 0.0 0 0 501.88 380.74
  L 480.06 355.43
  A 0.65 0.65 0.0 0 0 479.15 355.36"
/>
<path stroke="#cb864d" vector-effect="non-scaling-stroke" d="
  M 485.43 413.33
  A 0.57 0.56 -53.4 0 0 485.55 414.18
  Q 493.36 419.18 502.71 426.31
  C 513.81 434.79 522.65 444.96 531.49 456.12
  A 0.82 0.81 45.2 0 0 532.77 456.13
  Q 541.46 445.21 551.20 435.52
  A 0.99 0.98 -40.3 0 0 551.31 434.26
  Q 542.64 421.95 530.12 409.97
  Q 524.34 404.44 518.33 400.18
  Q 509.09 393.62 505.48 391.66
  A 1.24 1.23 34.7 0 0 503.95 391.93
  L 485.43 413.33"
/>
<path stroke="#7f9691" vector-effect="non-scaling-stroke" d="
  M 357.55 715.63
  L 357.61 748.35
  A 0.42 0.42 0.0 0 0 358.03 748.77
  L 378.75 748.74
  A 18.62 16.37 -0.1 0 0 397.34 732.34
  L 397.34 731.52
  A 18.62 16.37 -0.1 0 0 378.69 715.18
  L 357.97 715.21
  A 0.42 0.42 0.0 0 0 357.55 715.63"
/>
<path stroke="#7f9691" vector-effect="non-scaling-stroke" d="
  M 449.29 754.21
  A 0.36 0.36 0.0 0 0 449.62 754.71
  L 479.99 754.60
  A 0.36 0.36 0.0 0 0 480.32 754.10
  L 465.01 718.61
  A 0.36 0.36 0.0 0 0 464.35 718.61
  L 449.29 754.21"
/>
</g>
<path fill="#15352f" d="
  M 1024.00 0.00
  L 1024.00 1024.00
  L 0.00 1024.00
  L 0.00 0.00
  L 1024.00 0.00
  Z
  M 658.86 219.45
  A 1.20 1.19 -67.3 0 0 657.41 220.05
  Q 655.82 223.19 655.79 226.04
  A 1.24 1.24 0.0 0 0 656.21 226.97
  Q 658.94 229.35 659.90 229.67
  Q 667.16 232.15 672.15 236.10
  Q 679.82 242.18 685.96 248.30
  C 688.76 251.09 690.87 255.68 688.43 259.20
  Q 687.31 260.82 684.90 263.33
  A 0.89 0.88 31.3 0 0 685.26 264.78
  C 688.33 265.82 693.88 267.21 696.89 265.86
  A 1.93 1.87 4.0 0 0 697.65 265.22
  C 705.36 254.24 689.93 237.95 681.95 231.78
  Q 671.49 223.68 658.86 219.45
  Z
  M 327.78 255.57
  A 0.58 0.58 0.0 0 0 328.66 255.75
  C 334.53 250.97 338.11 247.87 343.81 242.07
  Q 351.31 234.45 358.20 229.21
  Q 358.79 228.75 359.96 227.20
  A 0.84 0.84 0.0 0 0 359.80 226.02
  C 352.18 220.13 341.93 222.29 334.63 227.66
  C 326.23 233.84 322.82 246.14 327.78 255.57
  Z
  M 609.29 259.02
  Q 588.27 248.01 569.49 242.99
  Q 499.45 224.25 432.56 254.57
  Q 420.23 260.16 406.74 269.75
  Q 406.62 269.73 406.46 269.69
  A 0.94 0.91 76.1 0 1 405.96 269.38
  Q 393.89 254.74 381.60 239.65
  Q 378.57 235.92 375.35 233.28
  A 2.94 2.93 56.0 0 0 372.63 232.74
  Q 368.65 233.96 365.77 235.76
  C 361.13 238.67 357.15 243.18 352.19 247.54
  Q 338.09 259.97 334.91 263.40
  Q 332.60 265.89 329.73 268.96
  C 322.30 276.91 320.44 289.59 326.43 298.85
  Q 330.56 305.26 337.98 313.53
  Q 344.38 320.66 350.19 327.83
  Q 339.33 342.96 332.92 356.93
  Q 315.59 394.67 315.79 437.24
  Q 316.08 495.49 347.86 544.16
  L 333.64 554.38
  A 0.26 0.26 0.0 0 0 333.84 554.85
  C 340.91 553.62 350.63 555.38 356.87 557.94
  C 367.04 562.12 377.84 568.34 385.16 576.36
  C 397.23 589.57 405.92 603.68 406.83 621.77
  A 0.45 0.45 0.0 0 0 407.70 621.91
  Q 410.44 615.02 414.60 608.98
  Q 452.99 630.91 493.74 635.10
  C 545.51 640.43 597.00 625.70 638.54 593.31
  Q 640.01 594.37 641.52 595.59
  Q 643.14 596.90 644.58 597.78
  Q 648.34 600.11 657.23 605.97
  Q 657.44 606.11 657.71 605.96
  A 0.32 0.32 0.0 0 0 657.85 605.56
  L 648.72 584.62
  A 0.93 0.90 -50.2 0 1 648.68 584.06
  Q 648.73 583.90 648.80 583.73
  C 692.70 544.84 716.61 489.20 714.94 430.50
  Q 713.54 381.54 690.61 340.13
  Q 683.06 326.51 675.58 316.14
  Q 677.95 314.45 680.62 312.40
  Q 691.97 303.67 701.38 297.75
  C 702.81 296.84 704.38 296.27 705.56 295.51
  A 0.34 0.33 -61.5 0 0 705.38 294.89
  Q 696.06 294.96 685.25 291.98
  C 668.27 287.29 653.34 275.72 642.78 261.73
  Q 631.37 246.62 628.11 227.84
  A 0.22 0.22 0.0 0 0 627.70 227.78
  Q 619.62 243.90 609.97 258.76
  Q 609.82 258.99 609.29 259.02
  Z
  M 660.03 240.68
  C 660.14 246.76 667.81 257.24 673.16 259.71
  A 1.72 1.72 0.0 0 0 674.24 259.83
  Q 678.52 258.89 681.09 255.30
  A 1.95 1.94 -44.1 0 0 681.13 253.08
  C 677.12 247.12 669.50 242.00 663.20 239.09
  Q 661.45 238.28 660.33 239.78
  A 1.50 1.50 0.0 0 0 660.03 240.68
  Z
  M 653.46 245.53
  A 0.66 0.65 -40.2 0 0 652.33 245.44
  L 647.28 252.67
  A 2.65 2.64 46.1 0 0 647.23 255.61
  Q 657.13 270.96 673.37 279.63
  Q 676.79 281.45 679.61 279.57
  Q 683.23 277.14 686.11 274.15
  A 0.70 0.70 0.0 0 0 685.86 273.01
  C 678.88 270.33 672.78 267.82 667.32 263.17
  Q 658.17 255.36 653.46 245.53
  Z
  M 350.69 574.23
  A 0.41 0.41 0.0 0 0 350.88 574.88
  C 360.01 577.93 368.02 583.14 374.16 590.60
  Q 379.39 596.95 382.16 602.71
  A 0.48 0.47 -40.5 0 0 382.98 602.77
  L 388.69 594.61
  A 1.90 1.88 -40.7 0 0 388.84 592.71
  Q 385.75 586.24 380.92 582.07
  C 375.76 577.62 369.48 572.09 362.74 567.85
  Q 360.63 566.52 359.22 567.29
  Q 354.09 570.09 350.69 574.23
  Z
  M 352.08 583.04
  Q 348.86 581.88 346.60 581.59
  C 341.90 580.97 338.33 580.32 337.23 585.78
  C 335.78 592.94 338.64 598.01 342.94 604.30
  C 350.92 615.98 364.28 623.75 377.36 627.81
  A 1.01 1.01 0.0 0 0 378.67 626.95
  L 379.33 620.20
  A 1.55 1.53 14.7 0 0 378.41 618.64
  Q 369.65 614.83 366.79 613.21
  Q 358.67 608.59 349.80 598.96
  C 347.48 596.44 345.61 593.13 347.22 589.96
  Q 349.06 586.35 352.21 583.83
  A 0.46 0.46 0.0 0 0 352.08 583.04
  Z
  M 374.66 607.32
  Q 374.84 603.75 373.14 600.33
  Q 369.88 593.72 363.80 588.59
  A 2.75 2.73 51.1 0 0 360.77 588.26
  Q 358.17 589.62 355.96 592.00
  A 2.99 2.98 53.2 0 0 355.48 595.36
  C 356.40 597.22 357.89 598.43 359.67 600.17
  Q 365.76 606.18 373.60 608.11
  A 0.86 0.86 0.0 0 0 374.66 607.32
  Z
  M 591.48 724.20
  L 599.16 715.33
  A 0.88 0.88 0.0 0 0 599.17 714.19
  C 591.04 704.47 578.52 700.18 565.95 700.29
  C 543.65 700.49 526.06 713.13 521.73 735.49
  C 518.57 751.79 523.90 768.65 536.71 779.13
  C 554.18 793.41 583.57 791.76 598.70 774.52
  A 0.90 0.89 -44.8 0 0 598.71 773.34
  L 590.83 764.20
  A 0.67 0.67 0.0 0 0 589.84 764.17
  C 572.38 782.66 540.91 776.38 537.17 749.02
  C 535.37 735.85 540.78 722.63 552.74 716.70
  C 561.34 712.43 573.27 712.97 581.72 717.59
  C 584.85 719.31 588.15 722.42 590.39 724.29
  A 0.78 0.78 0.0 0 0 591.48 724.20
  Z
  M 672.71 719.39
  L 676.69 708.39
  A 1.01 1.01 0.0 0 0 676.19 707.14
  Q 659.99 699.14 642.22 700.69
  C 629.10 701.83 616.61 709.59 614.84 723.56
  C 612.02 745.80 633.95 749.39 649.86 753.39
  Q 655.56 754.82 659.57 756.84
  C 666.04 760.09 666.70 768.20 660.56 772.06
  C 653.06 776.78 642.01 776.43 633.98 773.78
  Q 626.11 771.17 619.66 766.24
  A 0.49 0.48 -57.3 0 0 618.93 766.40
  L 613.25 777.32
  A 0.55 0.54 33.3 0 0 613.39 777.99
  C 627.13 789.23 650.65 792.52 666.45 784.52
  Q 681.17 777.07 679.87 760.78
  C 679.11 751.21 671.79 745.19 663.20 742.54
  Q 654.69 739.91 639.76 735.75
  C 633.54 734.02 629.01 730.18 630.63 723.06
  C 631.97 717.18 638.82 714.02 644.83 713.59
  C 654.88 712.88 662.98 715.46 671.72 719.79
  A 0.71 0.71 0.0 0 0 672.71 719.39
  Z
  M 341.73 702.72
  L 341.73 787.22
  A 0.83 0.83 0.0 0 0 342.56 788.05
  L 356.82 788.05
  A 0.75 0.75 0.0 0 0 357.57 787.30
  L 357.57 762.30
  A 0.45 0.45 0.0 0 1 358.03 761.85
  Q 372.19 761.93 380.24 761.80
  C 392.74 761.59 404.99 755.94 410.09 744.06
  C 415.45 731.61 412.64 716.65 401.27 708.71
  C 393.59 703.35 385.91 701.92 376.11 702.05
  Q 367.22 702.18 342.41 702.04
  A 0.68 0.68 0.0 0 0 341.73 702.72
  Z
  M 464.90 767.13
  Q 481.24 767.13 485.36 767.08
  A 0.81 0.79 76.9 0 1 486.10 767.55
  L 495.36 787.62
  A 0.43 0.42 -11.6 0 0 495.75 787.87
  L 510.55 787.87
  A 0.89 0.89 0.0 0 0 511.36 786.61
  L 472.84 703.12
  A 1.07 1.07 0.0 0 0 471.91 702.51
  Q 468.48 702.41 464.87 702.41
  Q 461.27 702.42 457.84 702.51
  A 1.07 1.07 0.0 0 0 456.91 703.13
  L 418.45 786.64
  A 0.89 0.89 0.0 0 0 419.26 787.90
  L 434.06 787.89
  A 0.43 0.42 11.5 0 0 434.45 787.64
  L 443.70 767.57
  A 0.81 0.79 -77.0 0 1 444.44 767.10
  Q 448.55 767.14 464.90 767.13
  Z"
/>
<path fill="#b23427" d="
  M 658.86 219.45
  Q 671.49 223.68 681.95 231.78
  C 689.93 237.95 705.36 254.24 697.65 265.22
  A 1.93 1.87 4.0 0 1 696.89 265.86
  C 693.88 267.21 688.33 265.82 685.26 264.78
  A 0.89 0.88 31.3 0 1 684.90 263.33
  Q 687.31 260.82 688.43 259.20
  C 690.87 255.68 688.76 251.09 685.96 248.30
  Q 679.82 242.18 672.15 236.10
  Q 667.16 232.15 659.90 229.67
  Q 658.94 229.35 656.21 226.97
  A 1.24 1.24 0.0 0 1 655.79 226.04
  Q 655.82 223.19 657.41 220.05
  A 1.20 1.19 -67.3 0 1 658.86 219.45
  Z"
/>
<path fill="#2da99c" d="
  M 327.78 255.57
  C 322.82 246.14 326.23 233.84 334.63 227.66
  C 341.93 222.29 352.18 220.13 359.80 226.02
  A 0.84 0.84 0.0 0 1 359.96 227.20
  Q 358.79 228.75 358.20 229.21
  Q 351.31 234.45 343.81 242.07
  C 338.11 247.87 334.53 250.97 328.66 255.75
  A 0.58 0.58 0.0 0 1 327.78 255.57
  Z"
/>
<path fill="#b23427" d="
  M 675.58 316.14
  Q 637.72 347.17 627.89 355.89
  Q 613.81 368.37 575.84 405.84
  Q 566.64 414.92 556.84 425.89
  A 1.23 1.23 0.0 0 1 554.96 425.83
  Q 536.99 402.94 513.53 386.47
  A 0.52 0.52 0.0 0 1 513.49 385.64
  Q 514.73 384.58 515.23 383.98
  Q 547.74 345.63 579.25 302.75
  Q 596.62 279.12 609.15 259.77
  Q 609.20 259.70 609.22 259.68
  Q 609.39 259.52 609.29 259.02
  Q 609.82 258.99 609.97 258.76
  Q 619.62 243.90 627.70 227.78
  A 0.22 0.22 0.0 0 1 628.11 227.84
  Q 631.37 246.62 642.78 261.73
  C 653.34 275.72 668.27 287.29 685.25 291.98
  Q 696.06 294.96 705.38 294.89
  A 0.34 0.33 -61.5 0 1 705.56 295.51
  C 704.38 296.27 702.81 296.84 701.38 297.75
  Q 691.97 303.67 680.62 312.40
  Q 677.95 314.45 675.58 316.14
  Z"
/>
<path fill="#2da99c" d="
  M 406.74 269.75
  Q 406.52 270.26 406.72 270.50
  Q 438.71 309.38 470.61 343.64
  Q 472.08 345.22 472.94 346.88
  A 1.16 1.14 -38.6 0 1 472.79 348.15
  Q 469.87 351.61 464.96 355.95
  Q 454.54 365.14 440.35 377.60
  Q 436.64 380.86 432.52 383.88
  A 1.67 1.67 0.0 0 1 430.30 383.66
  C 423.69 376.33 413.60 365.27 405.42 355.19
  Q 399.42 347.77 392.92 340.27
  C 385.72 331.95 375.86 319.48 366.92 309.21
  L 342.07 279.74
  A 0.76 0.75 38.1 0 0 340.82 279.89
  L 337.08 287.35
  A 2.39 2.32 -30.0 0 0 336.84 288.19
  C 336.42 292.87 337.96 295.98 340.76 299.52
  Q 345.34 305.33 349.74 311.27
  C 351.86 314.15 354.29 316.69 356.62 319.38
  Q 356.87 319.67 357.23 319.53
  Q 357.02 319.90 357.29 320.24
  Q 363.25 327.78 369.61 334.85
  C 375.82 341.74 380.64 348.56 386.42 354.99
  A 1.47 1.46 50.7 0 0 388.37 355.19
  L 390.69 353.49
  A 1.26 1.20 -62.3 0 1 391.37 353.26
  Q 393.17 353.19 394.65 355.64
  Q 398.52 362.04 404.55 371.21
  Q 407.16 375.17 404.62 379.27
  Q 403.51 381.05 401.48 381.42
  C 398.74 381.91 397.29 381.56 395.50 379.28
  C 387.13 368.60 377.63 358.38 369.61 349.73
  Q 366.93 346.85 360.06 338.65
  Q 355.36 333.04 350.19 327.83
  Q 344.38 320.66 337.98 313.53
  Q 330.56 305.26 326.43 298.85
  C 320.44 289.59 322.30 276.91 329.73 268.96
  Q 332.60 265.89 334.91 263.40
  Q 338.09 259.97 352.19 247.54
  C 357.15 243.18 361.13 238.67 365.77 235.76
  Q 368.65 233.96 372.63 232.74
  A 2.94 2.93 56.0 0 1 375.35 233.28
  Q 378.57 235.92 381.60 239.65
  Q 393.89 254.74 405.96 269.38
  A 0.94 0.91 76.1 0 0 406.46 269.69
  Q 406.62 269.73 406.74 269.75
  Z"
/>
<path fill="#e4d873" d="
  M 609.29 259.02
  Q 609.39 259.52 609.22 259.68
  Q 609.20 259.70 609.15 259.77
  Q 596.62 279.12 579.25 302.75
  Q 547.74 345.63 515.23 383.98
  Q 514.73 384.58 513.49 385.64
  A 0.52 0.52 0.0 0 0 513.53 386.47
  Q 536.99 402.94 554.96 425.83
  A 1.23 1.23 0.0 0 0 556.84 425.89
  Q 566.64 414.92 575.84 405.84
  Q 613.81 368.37 627.89 355.89
  Q 637.72 347.17 675.58 316.14
  Q 683.06 326.51 690.61 340.13
  Q 713.54 381.54 714.94 430.50
  C 716.61 489.20 692.70 544.84 648.80 583.73
  Q 648.63 583.70 648.44 583.67
  A 0.71 0.70 -6.7 0 1 647.94 583.28
  Q 645.87 578.69 643.47 573.39
  Q 634.46 553.47 625.42 531.30
  C 624.52 529.09 623.03 526.12 621.81 524.70
  Q 602.55 502.44 583.51 480.05
  L 556.03 447.11
  A 0.35 0.35 0.0 0 0 555.51 447.09
  Q 548.84 453.95 542.95 460.72
  Q 534.83 470.05 532.34 472.59
  Q 526.81 478.23 522.25 485.02
  A 1.03 1.02 -48.0 0 0 522.31 486.25
  L 545.29 513.84
  Q 554.79 525.23 564.55 536.59
  C 573.10 546.53 578.04 552.67 587.32 558.32
  Q 591.37 560.78 602.03 568.01
  Q 616.22 577.63 630.52 586.97
  Q 632.88 588.52 638.54 593.31
  C 597.00 625.70 545.51 640.43 493.74 635.10
  Q 452.99 630.91 414.60 608.98
  Q 419.77 599.21 423.90 593.15
  Q 443.17 564.84 469.84 528.79
  Q 496.25 494.30 525.06 462.06
  A 0.94 0.94 0.0 0 0 525.11 460.86
  Q 507.23 437.57 481.78 422.35
  A 1.29 1.29 0.0 0 0 480.11 422.64
  Q 475.46 428.29 469.63 434.39
  Q 443.24 461.98 415.93 488.69
  Q 391.30 511.36 377.48 521.98
  Q 367.18 529.91 357.05 538.05
  Q 352.66 541.58 347.86 544.16
  Q 316.08 495.49 315.79 437.24
  Q 315.59 394.67 332.92 356.93
  Q 339.33 342.96 350.19 327.83
  Q 355.36 333.04 360.06 338.65
  Q 366.93 346.85 369.61 349.73
  C 377.63 358.38 387.13 368.60 395.50 379.28
  C 397.29 381.56 398.74 381.91 401.48 381.42
  Q 403.51 381.05 404.62 379.27
  Q 407.16 375.17 404.55 371.21
  Q 398.52 362.04 394.65 355.64
  Q 393.17 353.19 391.37 353.26
  A 1.26 1.20 -62.3 0 0 390.69 353.49
  L 388.37 355.19
  A 1.47 1.46 50.7 0 1 386.42 354.99
  C 380.64 348.56 375.82 341.74 369.61 334.85
  Q 363.25 327.78 357.29 320.24
  Q 357.02 319.90 357.23 319.53
  L 366.92 309.21
  C 375.86 319.48 385.72 331.95 392.92 340.27
  Q 399.42 347.77 405.42 355.19
  C 413.60 365.27 423.69 376.33 430.30 383.66
  A 1.67 1.67 0.0 0 0 432.52 383.88
  Q 436.64 380.86 440.35 377.60
  Q 454.54 365.14 464.96 355.95
  Q 469.87 351.61 472.79 348.15
  A 1.16 1.14 -38.6 0 0 472.94 346.88
  Q 472.08 345.22 470.61 343.64
  Q 438.71 309.38 406.72 270.50
  Q 406.52 270.26 406.74 269.75
  Q 420.23 260.16 432.56 254.57
  Q 499.45 224.25 569.49 242.99
  Q 588.27 248.01 609.29 259.02
  Z
  M 479.15 355.36
  C 469.67 363.44 459.25 373.17 448.96 381.85
  Q 443.50 386.46 438.97 391.37
  A 1.22 1.20 46.3 0 0 438.94 392.97
  Q 444.92 400.01 456.84 413.66
  Q 461.34 418.82 465.60 422.53
  A 1.19 1.19 0.0 0 0 467.28 422.41
  L 501.87 382.44
  A 1.30 1.30 0.0 0 0 501.88 380.74
  L 480.06 355.43
  A 0.65 0.65 0.0 0 0 479.15 355.36
  Z
  M 485.43 413.33
  A 0.57 0.56 -53.4 0 0 485.55 414.18
  Q 493.36 419.18 502.71 426.31
  C 513.81 434.79 522.65 444.96 531.49 456.12
  A 0.82 0.81 45.2 0 0 532.77 456.13
  Q 541.46 445.21 551.20 435.52
  A 0.99 0.98 -40.3 0 0 551.31 434.26
  Q 542.64 421.95 530.12 409.97
  Q 524.34 404.44 518.33 400.18
  Q 509.09 393.62 505.48 391.66
  A 1.24 1.23 34.7 0 0 503.95 391.93
  L 485.43 413.33
  Z"
/>
<path fill="#b23427" d="
  M 660.33 239.78
  Q 661.45 238.28 663.20 239.09
  C 669.50 242.00 677.12 247.12 681.13 253.08
  A 1.95 1.94 -44.1 0 1 681.09 255.30
  Q 678.52 258.89 674.24 259.83
  A 1.72 1.72 0.0 0 1 673.16 259.71
  C 667.81 257.24 660.14 246.76 660.03 240.68
  A 1.50 1.50 0.0 0 1 660.33 239.78
  Z"
/>
<path fill="#b23427" d="
  M 653.46 245.53
  Q 658.17 255.36 667.32 263.17
  C 672.78 267.82 678.88 270.33 685.86 273.01
  A 0.70 0.70 0.0 0 1 686.11 274.15
  Q 683.23 277.14 679.61 279.57
  Q 676.79 281.45 673.37 279.63
  Q 657.13 270.96 647.23 255.61
  A 2.65 2.64 46.1 0 1 647.28 252.67
  L 652.33 245.44
  A 0.66 0.65 -40.2 0 1 653.46 245.53
  Z"
/>
<path fill="#15352f" d="
  M 366.92 309.21
  L 357.23 319.53
  Q 356.87 319.67 356.62 319.38
  C 354.29 316.69 351.86 314.15 349.74 311.27
  Q 345.34 305.33 340.76 299.52
  C 337.96 295.98 336.42 292.87 336.84 288.19
  A 2.39 2.32 -30.0 0 1 337.08 287.35
  L 340.82 279.89
  A 0.76 0.75 38.1 0 1 342.07 279.74
  L 366.92 309.21
  Z"
/>
<path fill="#158177" d="
  M 479.15 355.36
  A 0.65 0.65 0.0 0 1 480.06 355.43
  L 501.88 380.74
  A 1.30 1.30 0.0 0 1 501.87 382.44
  L 467.28 422.41
  A 1.19 1.19 0.0 0 1 465.60 422.53
  Q 461.34 418.82 456.84 413.66
  Q 444.92 400.01 438.94 392.97
  A 1.22 1.20 46.3 0 1 438.97 391.37
  Q 443.50 386.46 448.96 381.85
  C 459.25 373.17 469.67 363.44 479.15 355.36
  Z"
/>
<path fill="#b23427" d="
  M 485.43 413.33
  L 503.95 391.93
  A 1.24 1.23 34.7 0 1 505.48 391.66
  Q 509.09 393.62 518.33 400.18
  Q 524.34 404.44 530.12 409.97
  Q 542.64 421.95 551.31 434.26
  A 0.99 0.98 -40.3 0 1 551.20 435.52
  Q 541.46 445.21 532.77 456.13
  A 0.82 0.81 45.2 0 1 531.49 456.12
  C 522.65 444.96 513.81 434.79 502.71 426.31
  Q 493.36 419.18 485.55 414.18
  A 0.57 0.56 -53.4 0 1 485.43 413.33
  Z"
/>
<path fill="#c74832" d="
  M 469.84 528.79
  Q 461.43 520.01 452.70 511.92
  Q 439.57 499.74 423.36 492.16
  Q 419.69 490.44 415.93 488.69
  Q 443.24 461.98 469.63 434.39
  Q 475.46 428.29 480.11 422.64
  A 1.29 1.29 0.0 0 1 481.78 422.35
  Q 507.23 437.57 525.11 460.86
  A 0.94 0.94 0.0 0 1 525.06 462.06
  Q 496.25 494.30 469.84 528.79
  Z"
/>
<path fill="#158177" d="
  M 583.51 480.05
  Q 572.55 486.68 561.55 493.23
  C 552.97 498.35 547.48 503.83 545.29 513.84
  L 522.31 486.25
  A 1.03 1.02 -48.0 0 1 522.25 485.02
  Q 526.81 478.23 532.34 472.59
  Q 534.83 470.05 542.95 460.72
  Q 548.84 453.95 555.51 447.09
  A 0.35 0.35 0.0 0 1 556.03 447.11
  L 583.51 480.05
  Z"
/>
<path fill="#2da99c" d="
  M 648.80 583.73
  Q 648.73 583.90 648.68 584.06
  A 0.93 0.90 -50.2 0 0 648.72 584.62
  L 657.85 605.56
  A 0.32 0.32 0.0 0 1 657.71 605.96
  Q 657.44 606.11 657.23 605.97
  Q 648.34 600.11 644.58 597.78
  Q 643.14 596.90 641.52 595.59
  Q 640.01 594.37 638.54 593.31
  Q 632.88 588.52 630.52 586.97
  Q 616.22 577.63 602.03 568.01
  Q 591.37 560.78 587.32 558.32
  C 578.04 552.67 573.10 546.53 564.55 536.59
  Q 554.79 525.23 545.29 513.84
  C 547.48 503.83 552.97 498.35 561.55 493.23
  Q 572.55 486.68 583.51 480.05
  Q 602.55 502.44 621.81 524.70
  C 623.03 526.12 624.52 529.09 625.42 531.30
  Q 634.46 553.47 643.47 573.39
  Q 645.87 578.69 647.94 583.28
  A 0.71 0.70 -6.7 0 0 648.44 583.67
  Q 648.63 583.70 648.80 583.73
  Z"
/>
<path fill="#da5c3f" d="
  M 469.84 528.79
  Q 443.17 564.84 423.90 593.15
  Q 419.77 599.21 414.60 608.98
  Q 410.44 615.02 407.70 621.91
  A 0.45 0.45 0.0 0 1 406.83 621.77
  C 405.92 603.68 397.23 589.57 385.16 576.36
  C 377.84 568.34 367.04 562.12 356.87 557.94
  C 350.63 555.38 340.91 553.62 333.84 554.85
  A 0.26 0.26 0.0 0 1 333.64 554.38
  L 347.86 544.16
  Q 352.66 541.58 357.05 538.05
  Q 367.18 529.91 377.48 521.98
  Q 391.30 511.36 415.93 488.69
  Q 419.69 490.44 423.36 492.16
  Q 439.57 499.74 452.70 511.92
  Q 461.43 520.01 469.84 528.79
  Z"
/>
<path fill="#da5c3f" d="
  M 350.69 574.23
  Q 354.09 570.09 359.22 567.29
  Q 360.63 566.52 362.74 567.85
  C 369.48 572.09 375.76 577.62 380.92 582.07
  Q 385.75 586.24 388.84 592.71
  A 1.90 1.88 -40.7 0 1 388.69 594.61
  L 382.98 602.77
  A 0.48 0.47 -40.5 0 1 382.16 602.71
  Q 379.39 596.95 374.16 590.60
  C 368.02 583.14 360.01 577.93 350.88 574.88
  A 0.41 0.41 0.0 0 1 350.69 574.23
  Z"
/>
<path fill="#da5c3f" d="
  M 352.08 583.04
  A 0.46 0.46 0.0 0 1 352.21 583.83
  Q 349.06 586.35 347.22 589.96
  C 345.61 593.13 347.48 596.44 349.80 598.96
  Q 358.67 608.59 366.79 613.21
  Q 369.65 614.83 378.41 618.64
  A 1.55 1.53 14.7 0 1 379.33 620.20
  L 378.67 626.95
  A 1.01 1.01 0.0 0 1 377.36 627.81
  C 364.28 623.75 350.92 615.98 342.94 604.30
  C 338.64 598.01 335.78 592.94 337.23 585.78
  C 338.33 580.32 341.90 580.97 346.60 581.59
  Q 348.86 581.88 352.08 583.04
  Z"
/>
<path fill="#da5c3f" d="
  M 374.66 607.32
  A 0.86 0.86 0.0 0 1 373.60 608.11
  Q 365.76 606.18 359.67 600.17
  C 357.89 598.43 356.40 597.22 355.48 595.36
  A 2.99 2.98 53.2 0 1 355.96 592.00
  Q 358.17 589.62 360.77 588.26
  A 2.75 2.73 51.1 0 1 363.80 588.59
  Q 369.88 593.72 373.14 600.33
  Q 374.84 603.75 374.66 607.32
  Z"
/>
<path fill="#e9f7f3" d="
  M 590.39 724.29
  C 588.15 722.42 584.85 719.31 581.72 717.59
  C 573.27 712.97 561.34 712.43 552.74 716.70
  C 540.78 722.63 535.37 735.85 537.17 749.02
  C 540.91 776.38 572.38 782.66 589.84 764.17
  A 0.67 0.67 0.0 0 1 590.83 764.20
  L 598.71 773.34
  A 0.90 0.89 -44.8 0 1 598.70 774.52
  C 583.57 791.76 554.18 793.41 536.71 779.13
  C 523.90 768.65 518.57 751.79 521.73 735.49
  C 526.06 713.13 543.65 700.49 565.95 700.29
  C 578.52 700.18 591.04 704.47 599.17 714.19
  A 0.88 0.88 0.0 0 1 599.16 715.33
  L 591.48 724.20
  A 0.78 0.78 0.0 0 1 590.39 724.29
  Z"
/>
<path fill="#e9f7f3" d="
  M 672.71 719.39
  A 0.71 0.71 0.0 0 1 671.72 719.79
  C 662.98 715.46 654.88 712.88 644.83 713.59
  C 638.82 714.02 631.97 717.18 630.63 723.06
  C 629.01 730.18 633.54 734.02 639.76 735.75
  Q 654.69 739.91 663.20 742.54
  C 671.79 745.19 679.11 751.21 679.87 760.78
  Q 681.17 777.07 666.45 784.52
  C 650.65 792.52 627.13 789.23 613.39 777.99
  A 0.55 0.54 33.3 0 1 613.25 777.32
  L 618.93 766.40
  A 0.49 0.48 -57.3 0 1 619.66 766.24
  Q 626.11 771.17 633.98 773.78
  C 642.01 776.43 653.06 776.78 660.56 772.06
  C 666.70 768.20 666.04 760.09 659.57 756.84
  Q 655.56 754.82 649.86 753.39
  C 633.95 749.39 612.02 745.80 614.84 723.56
  C 616.61 709.59 629.10 701.83 642.22 700.69
  Q 659.99 699.14 676.19 707.14
  A 1.01 1.01 0.0 0 1 676.69 708.39
  L 672.71 719.39
  Z"
/>
<path fill="#e9f7f3" d="
  M 341.73 702.72
  A 0.68 0.68 0.0 0 1 342.41 702.04
  Q 367.22 702.18 376.11 702.05
  C 385.91 701.92 393.59 703.35 401.27 708.71
  C 412.64 716.65 415.45 731.61 410.09 744.06
  C 404.99 755.94 392.74 761.59 380.24 761.80
  Q 372.19 761.93 358.03 761.85
  A 0.45 0.45 0.0 0 0 357.57 762.30
  L 357.57 787.30
  A 0.75 0.75 0.0 0 1 356.82 788.05
  L 342.56 788.05
  A 0.83 0.83 0.0 0 1 341.73 787.22
  L 341.73 702.72
  Z
  M 357.55 715.63
  L 357.61 748.35
  A 0.42 0.42 0.0 0 0 358.03 748.77
  L 378.75 748.74
  A 18.62 16.37 -0.1 0 0 397.34 732.34
  L 397.34 731.52
  A 18.62 16.37 -0.1 0 0 378.69 715.18
  L 357.97 715.21
  A 0.42 0.42 0.0 0 0 357.55 715.63
  Z"
/>
<path fill="#e9f7f3" d="
  M 464.87 702.41
  Q 468.48 702.41 471.91 702.51
  A 1.07 1.07 0.0 0 1 472.84 703.12
  L 511.36 786.61
  A 0.89 0.89 0.0 0 1 510.55 787.87
  L 495.75 787.87
  A 0.43 0.42 -11.6 0 1 495.36 787.62
  L 486.10 767.55
  A 0.81 0.79 76.9 0 0 485.36 767.08
  Q 481.24 767.13 464.90 767.13
  Q 448.55 767.14 444.44 767.10
  A 0.81 0.79 -77.0 0 0 443.70 767.57
  L 434.45 787.64
  A 0.43 0.42 11.5 0 1 434.06 787.89
  L 419.26 787.90
  A 0.89 0.89 0.0 0 1 418.45 786.64
  L 456.91 703.13
  A 1.07 1.07 0.0 0 1 457.84 702.51
  Q 461.27 702.42 464.87 702.41
  Z
  M 449.29 754.21
  A 0.36 0.36 0.0 0 0 449.62 754.71
  L 479.99 754.60
  A 0.36 0.36 0.0 0 0 480.32 754.10
  L 465.01 718.61
  A 0.36 0.36 0.0 0 0 464.35 718.61
  L 449.29 754.21
  Z"
/>
<path fill="#15352f" d="
  M 357.55 715.63
  A 0.42 0.42 0.0 0 1 357.97 715.21
  L 378.69 715.18
  A 18.62 16.37 -0.1 0 1 397.34 731.52
  L 397.34 732.34
  A 18.62 16.37 -0.1 0 1 378.75 748.74
  L 358.03 748.77
  A 0.42 0.42 0.0 0 1 357.61 748.35
  L 357.55 715.63
  Z"
/>
<path fill="#15352f" d="
  M 449.29 754.21
  L 464.35 718.61
  A 0.36 0.36 0.0 0 1 465.01 718.61
  L 480.32 754.10
  A 0.36 0.36 0.0 0 1 479.99 754.60
  L 449.62 754.71
  A 0.36 0.36 0.0 0 1 449.29 754.21
  Z"
/>
</svg>
